# xmcd CD database file
#
# Track frame offsets:
#	150
#	16957
#	39731
#	53532
#	64555
#	81600
#	94817
#	112606
#	132641
#	149711
#	169172
#	184586
#	198330
#	214109
#	229404
#	243807
#	260590
#	274551
#	287294
#	303631
#
# Disc length: 4216 seconds
#
# Revision: 0
# Processed by: cddbd v1.5.1PL0 Copyright (c) Steve Scherf et al.
# Submitted via: CDex 1.50Beta7
#
DISCID=21107614
DTITLE=Boate Azul - Boêmias Atuais
DYEAR=2005
DGENRE=Country
TTITLE0=Matogrosso and Mathias - Boate azul
TTITLE1=Bruno and Marrone - Pout porri de boleros
TTITLE2=Eduardo Costa - Camisa manchada
TTITLE3=Teodoro and Sampaio - Vou beber de novo
TTITLE4=Rick and Renner - Nos bares da cidade
TTITLE5=Ronaldo Viola and Praiano - Proposta
TTITLE6=Leonardo - Roupa de lua de mel
TTITLE7=João Pedro and Cristiano - Frente a frente
TTITLE8=Joaquim and Manuel - Saudade de mim
TTITLE9=Milionário and José Rico - Sonhei com você
TTITLE10=João Mineiro and Marciano - As paredes azuis
TTITLE11=Alan and Aladim - Do outro lado da cidade
TTITLE12=Fabiano and Cesinha - Amargurado
TTITLE13=Gino and Geno - Telefone no ar
TTITLE14=As Marcianas - Alguém que me lembra você
TTITLE15=Marcinho and Chitãozinho - Caro amigo
TTITLE16=Lourenço and Lourival - A cruz que carrego
TTITLE17=Chitãozinho and Xororó - Amor a tres
TTITLE18=Leonardo - Vestido de seda
TTITLE19=Dalvan - Dama de vermelho
EXTD=YEAR: 2005
EXTT0=
EXTT1=
EXTT2=
EXTT3=
EXTT4=
EXTT5=
EXTT6=
EXTT7=
EXTT8=
EXTT9=
EXTT10=
EXTT11=
EXTT12=
EXTT13=
EXTT14=
EXTT15=
EXTT16=
EXTT17=
EXTT18=
EXTT19=
PLAYORDER=
